<svg width="29" height="28" viewBox="0 0 29 28" fill="none" xmlns="http://www.w3.org/2000/svg">
<path d="M7.49996 24.5C6.85829 24.5 6.30879 24.2713 5.85146 23.814C5.39413 23.3566 5.16585 22.8075 5.16663 22.1666V11.6666C5.16663 11.2972 5.24946 10.9472 5.41513 10.6166C5.58079 10.2861 5.80907 10.0139 6.09996 9.79998L13.1 4.54998C13.3139 4.39442 13.5375 4.27776 13.7708 4.19998C14.0041 4.1222 14.2472 4.08331 14.5 4.08331C14.7527 4.08331 14.9958 4.1222 15.2291 4.19998C15.4625 4.27776 15.6861 4.39442 15.9 4.54998L22.9 9.79998C23.1916 10.0139 23.4203 10.2861 23.586 10.6166C23.7516 10.9472 23.8341 11.2972 23.8333 11.6666V22.1666C23.8333 22.8083 23.6046 23.3578 23.1473 23.8151C22.69 24.2725 22.1409 24.5008 21.5 24.5H16.8333V16.3333H12.1666V24.5H7.49996Z" fill="#F2F2F7"/>
</svg>
