<svg width="29" height="28" viewBox="0 0 29 28" fill="none" xmlns="http://www.w3.org/2000/svg">
<path d="M9.95004 17.2083C10.2223 18.1416 10.6454 18.8953 11.2194 19.4693C11.7934 20.0433 12.5369 20.4369 13.45 20.65V21.1458C13.45 21.418 13.5523 21.6564 13.7569 21.861C13.9614 22.0655 14.1994 22.1674 14.4709 22.1666C14.7431 22.1666 14.9815 22.0644 15.186 21.8598C15.3906 21.6553 15.4925 21.4173 15.4917 21.1458V20.7083C16.4639 20.5333 17.3 20.1541 18 19.5708C18.7 18.9875 19.05 18.1222 19.05 16.975C19.05 16.1583 18.8167 15.4097 18.35 14.7291C17.8834 14.0486 16.95 13.4555 15.55 12.95C14.3834 12.5611 13.5764 12.2208 13.1292 11.9291C12.682 11.6375 12.4584 11.2389 12.4584 10.7333C12.4584 10.2278 12.6384 9.82915 12.9985 9.53748C13.3587 9.24581 13.8786 9.09998 14.5584 9.09998C15.1806 9.09998 15.6667 9.25048 16.0167 9.55148C16.3667 9.85248 16.6195 10.227 16.775 10.675L18.6417 9.91665C18.4278 9.23609 18.0343 8.64304 17.461 8.13748C16.8878 7.63192 16.2508 7.34998 15.55 7.29165V6.85415C15.55 6.58192 15.4478 6.34354 15.2432 6.13898C15.0387 5.93442 14.801 5.83254 14.5304 5.83331C14.2582 5.83331 14.0198 5.93559 13.8152 6.14015C13.6107 6.3447 13.5088 6.5827 13.5095 6.85415V7.29165C12.5373 7.50554 11.779 7.93331 11.2345 8.57498C10.6901 9.21665 10.4175 9.93609 10.4167 10.7333C10.4167 11.6472 10.6843 12.3861 11.2194 12.95C11.7545 13.5139 12.5953 14 13.7417 14.4083C14.9667 14.8555 15.8176 15.2541 16.2944 15.6041C16.7712 15.9541 17.0092 16.4111 17.0084 16.975C17.0084 17.6166 16.7797 18.0884 16.3224 18.3901C15.865 18.6919 15.3159 18.8424 14.675 18.8416C14.0334 18.8416 13.4644 18.6425 12.9682 18.2443C12.472 17.8461 12.1076 17.248 11.875 16.45L9.95004 17.2083ZM14.5 25.6666C12.8862 25.6666 11.3695 25.3602 9.95004 24.7473C8.5306 24.1344 7.29587 23.3034 6.24587 22.2541C5.19587 21.2041 4.36482 19.9694 3.75271 18.55C3.1406 17.1305 2.83415 15.6139 2.83337 14C2.83337 12.3861 3.13982 10.8694 3.75271 9.44998C4.3656 8.03054 5.19665 6.79581 6.24587 5.74581C7.29587 4.69581 8.5306 3.86476 9.95004 3.25265C11.3695 2.64054 12.8862 2.33409 14.5 2.33331C16.1139 2.33331 17.6306 2.63976 19.05 3.25265C20.4695 3.86554 21.7042 4.69659 22.7542 5.74581C23.8042 6.79581 24.6357 8.03054 25.2485 9.44998C25.8614 10.8694 26.1675 12.3861 26.1667 14C26.1667 15.6139 25.8603 17.1305 25.2474 18.55C24.6345 19.9694 23.8034 21.2041 22.7542 22.2541C21.7042 23.3041 20.4695 24.1356 19.05 24.7485C17.6306 25.3614 16.1139 25.6674 14.5 25.6666Z" fill="#F2F2F7"/>
</svg>
